<mxfile host="app.diagrams.net" agent="Mozilla/5.0 (Windows NT 10.0; Win64; x64) AppleWebKit/537.36 (KHTML, like Gecko) Chrome/138.0.0.0 Safari/537.36" version="27.0.5">
  <diagram name="Page-1" id="XIZshbfn7NMJk_1GvI07">
    <mxGraphModel dx="4177" dy="2277" grid="0" gridSize="10" guides="1" tooltips="1" connect="1" arrows="1" fold="1" page="0" pageScale="1" pageWidth="850" pageHeight="1100" math="0" shadow="0">
      <root>
        <mxCell id="0" />
        <mxCell id="1" parent="0" />
        <mxCell id="Hcrr5EgMV3pNzxd26oQe-16" value="" style="rounded=0;whiteSpace=wrap;html=1;" vertex="1" parent="1">
          <mxGeometry x="-1134" y="-332" width="1092" height="1678" as="geometry" />
        </mxCell>
        <mxCell id="QBpZ6xTL5SgzaReXafCs-58" style="edgeStyle=none;curved=1;rounded=0;orthogonalLoop=1;jettySize=auto;html=1;exitX=0.5;exitY=1;exitDx=0;exitDy=0;entryX=0.5;entryY=0;entryDx=0;entryDy=0;fontSize=12;startSize=8;endSize=8;" parent="1" source="JjKQ8CQkzTSP6PZhoDlF-1" target="QBpZ6xTL5SgzaReXafCs-57" edge="1">
          <mxGeometry relative="1" as="geometry" />
        </mxCell>
        <mxCell id="JjKQ8CQkzTSP6PZhoDlF-1" value="&lt;font style=&quot;font-size: 22px;&quot;&gt;Load Data to Send&lt;/font&gt;" style="rounded=0;whiteSpace=wrap;html=1;" parent="1" vertex="1">
          <mxGeometry x="-480" y="104" width="120" height="60" as="geometry" />
        </mxCell>
        <mxCell id="QBpZ6xTL5SgzaReXafCs-24" style="edgeStyle=none;curved=1;rounded=0;orthogonalLoop=1;jettySize=auto;html=1;entryX=0.5;entryY=0;entryDx=0;entryDy=0;fontSize=12;startSize=8;endSize=8;" parent="1" source="JjKQ8CQkzTSP6PZhoDlF-5" target="JjKQ8CQkzTSP6PZhoDlF-6" edge="1">
          <mxGeometry relative="1" as="geometry" />
        </mxCell>
        <mxCell id="JjKQ8CQkzTSP6PZhoDlF-5" value="&lt;font style=&quot;font-size: 22px;&quot;&gt;Enable on GPIOA&lt;/font&gt;" style="whiteSpace=wrap;html=1;" parent="1" vertex="1">
          <mxGeometry x="-480" y="-136" width="120" height="60" as="geometry" />
        </mxCell>
        <mxCell id="QBpZ6xTL5SgzaReXafCs-23" style="edgeStyle=none;curved=1;rounded=0;orthogonalLoop=1;jettySize=auto;html=1;entryX=1;entryY=0.5;entryDx=0;entryDy=0;fontSize=12;startSize=8;endSize=8;" parent="1" source="JjKQ8CQkzTSP6PZhoDlF-6" target="QBpZ6xTL5SgzaReXafCs-1" edge="1">
          <mxGeometry relative="1" as="geometry" />
        </mxCell>
        <mxCell id="JjKQ8CQkzTSP6PZhoDlF-6" value="&lt;font style=&quot;font-size: 17px;&quot;&gt;Configure PA0, PA1 as Outputs&lt;/font&gt;" style="whiteSpace=wrap;html=1;" parent="1" vertex="1">
          <mxGeometry x="-480" y="-56" width="120" height="60" as="geometry" />
        </mxCell>
        <mxCell id="QBpZ6xTL5SgzaReXafCs-21" style="edgeStyle=none;curved=1;rounded=0;orthogonalLoop=1;jettySize=auto;html=1;entryX=0;entryY=0.5;entryDx=0;entryDy=0;fontSize=12;startSize=8;endSize=8;" parent="1" source="JjKQ8CQkzTSP6PZhoDlF-7" target="QBpZ6xTL5SgzaReXafCs-2" edge="1">
          <mxGeometry relative="1" as="geometry" />
        </mxCell>
        <mxCell id="JjKQ8CQkzTSP6PZhoDlF-7" value="&lt;font style=&quot;font-size: 17px;&quot;&gt;Set Address of GPIOA_ODR&lt;/font&gt;" style="whiteSpace=wrap;html=1;" parent="1" vertex="1">
          <mxGeometry x="-700" y="24" width="120" height="60" as="geometry" />
        </mxCell>
        <mxCell id="QBpZ6xTL5SgzaReXafCs-38" style="edgeStyle=none;curved=1;rounded=0;orthogonalLoop=1;jettySize=auto;html=1;entryX=1;entryY=0.5;entryDx=0;entryDy=0;fontSize=12;startSize=8;endSize=8;" parent="1" source="JjKQ8CQkzTSP6PZhoDlF-8" target="JjKQ8CQkzTSP6PZhoDlF-9" edge="1">
          <mxGeometry relative="1" as="geometry" />
        </mxCell>
        <mxCell id="JjKQ8CQkzTSP6PZhoDlF-8" value="&lt;font style=&quot;font-size: 22px;&quot;&gt;Turn on PA0&amp;nbsp;&lt;/font&gt;" style="whiteSpace=wrap;html=1;" parent="1" vertex="1">
          <mxGeometry x="-480" y="514" width="120" height="60" as="geometry" />
        </mxCell>
        <mxCell id="QBpZ6xTL5SgzaReXafCs-39" style="edgeStyle=none;curved=1;rounded=0;orthogonalLoop=1;jettySize=auto;html=1;fontSize=12;startSize=8;endSize=8;" parent="1" source="JjKQ8CQkzTSP6PZhoDlF-9" target="JjKQ8CQkzTSP6PZhoDlF-11" edge="1">
          <mxGeometry relative="1" as="geometry" />
        </mxCell>
        <mxCell id="JjKQ8CQkzTSP6PZhoDlF-9" value="&lt;font style=&quot;font-size: 22px;&quot;&gt;Check LSB&lt;/font&gt;" style="whiteSpace=wrap;html=1;" parent="1" vertex="1">
          <mxGeometry x="-680" y="514" width="120" height="60" as="geometry" />
        </mxCell>
        <mxCell id="JjKQ8CQkzTSP6PZhoDlF-15" style="edgeStyle=orthogonalEdgeStyle;rounded=0;orthogonalLoop=1;jettySize=auto;html=1;exitX=1;exitY=0.5;exitDx=0;exitDy=0;entryX=0;entryY=0.5;entryDx=0;entryDy=0;" parent="1" source="JjKQ8CQkzTSP6PZhoDlF-11" target="JjKQ8CQkzTSP6PZhoDlF-17" edge="1">
          <mxGeometry relative="1" as="geometry">
            <mxPoint x="-200" y="964" as="targetPoint" />
          </mxGeometry>
        </mxCell>
        <mxCell id="JjKQ8CQkzTSP6PZhoDlF-16" value="NO" style="edgeLabel;html=1;align=center;verticalAlign=middle;resizable=0;points=[];" parent="JjKQ8CQkzTSP6PZhoDlF-15" vertex="1" connectable="0">
          <mxGeometry x="0.0285" y="-1" relative="1" as="geometry">
            <mxPoint x="1" as="offset" />
          </mxGeometry>
        </mxCell>
        <mxCell id="Hcrr5EgMV3pNzxd26oQe-9" style="edgeStyle=orthogonalEdgeStyle;rounded=0;orthogonalLoop=1;jettySize=auto;html=1;entryX=1;entryY=0.5;entryDx=0;entryDy=0;" edge="1" parent="1" source="JjKQ8CQkzTSP6PZhoDlF-11" target="JjKQ8CQkzTSP6PZhoDlF-13">
          <mxGeometry relative="1" as="geometry" />
        </mxCell>
        <mxCell id="Hcrr5EgMV3pNzxd26oQe-10" value="YES" style="edgeLabel;html=1;align=center;verticalAlign=middle;resizable=0;points=[];" vertex="1" connectable="0" parent="Hcrr5EgMV3pNzxd26oQe-9">
          <mxGeometry x="-0.2306" y="3" relative="1" as="geometry">
            <mxPoint x="-4" y="-3" as="offset" />
          </mxGeometry>
        </mxCell>
        <mxCell id="JjKQ8CQkzTSP6PZhoDlF-11" value="&lt;font style=&quot;font-size: 22px;&quot;&gt;Is LSB 1?&lt;/font&gt;" style="rhombus;whiteSpace=wrap;html=1;aspect=fixed;" parent="1" vertex="1">
          <mxGeometry x="-698" y="616" width="156" height="156" as="geometry" />
        </mxCell>
        <mxCell id="JjKQ8CQkzTSP6PZhoDlF-21" style="edgeStyle=orthogonalEdgeStyle;rounded=0;orthogonalLoop=1;jettySize=auto;html=1;exitX=0.5;exitY=1;exitDx=0;exitDy=0;entryX=0.25;entryY=0;entryDx=0;entryDy=0;" parent="1" source="JjKQ8CQkzTSP6PZhoDlF-13" target="JjKQ8CQkzTSP6PZhoDlF-20" edge="1">
          <mxGeometry relative="1" as="geometry">
            <mxPoint x="-670" y="764" as="targetPoint" />
            <mxPoint x="-850" y="764" as="sourcePoint" />
          </mxGeometry>
        </mxCell>
        <mxCell id="JjKQ8CQkzTSP6PZhoDlF-13" value="&lt;font style=&quot;font-size: 22px;&quot;&gt;Set PA1 HIGH&lt;/font&gt;" style="whiteSpace=wrap;html=1;" parent="1" vertex="1">
          <mxGeometry x="-865" y="664" width="120" height="60" as="geometry" />
        </mxCell>
        <mxCell id="JjKQ8CQkzTSP6PZhoDlF-19" style="edgeStyle=orthogonalEdgeStyle;rounded=0;orthogonalLoop=1;jettySize=auto;html=1;exitX=0.5;exitY=1;exitDx=0;exitDy=0;entryX=0.75;entryY=0;entryDx=0;entryDy=0;" parent="1" source="JjKQ8CQkzTSP6PZhoDlF-17" target="JjKQ8CQkzTSP6PZhoDlF-20" edge="1">
          <mxGeometry relative="1" as="geometry">
            <mxPoint x="-610" y="824" as="targetPoint" />
            <Array as="points">
              <mxPoint x="-430" y="764" />
              <mxPoint x="-590" y="764" />
            </Array>
          </mxGeometry>
        </mxCell>
        <mxCell id="JjKQ8CQkzTSP6PZhoDlF-17" value="&lt;font style=&quot;font-size: 22px;&quot;&gt;Set PA1 LOW&lt;/font&gt;" style="whiteSpace=wrap;html=1;" parent="1" vertex="1">
          <mxGeometry x="-490" y="664" width="120" height="60" as="geometry" />
        </mxCell>
        <mxCell id="QBpZ6xTL5SgzaReXafCs-67" style="edgeStyle=none;curved=1;rounded=0;orthogonalLoop=1;jettySize=auto;html=1;exitX=0.5;exitY=1;exitDx=0;exitDy=0;entryX=0.5;entryY=0;entryDx=0;entryDy=0;fontSize=12;startSize=8;endSize=8;" parent="1" source="JjKQ8CQkzTSP6PZhoDlF-20" target="QBpZ6xTL5SgzaReXafCs-60" edge="1">
          <mxGeometry relative="1" as="geometry" />
        </mxCell>
        <mxCell id="JjKQ8CQkzTSP6PZhoDlF-20" value="&lt;font style=&quot;font-size: 22px;&quot;&gt;Delay 1 Second&lt;/font&gt;" style="whiteSpace=wrap;html=1;" parent="1" vertex="1">
          <mxGeometry x="-680" y="804" width="120" height="60" as="geometry" />
        </mxCell>
        <mxCell id="QBpZ6xTL5SgzaReXafCs-25" style="edgeStyle=none;curved=1;rounded=0;orthogonalLoop=1;jettySize=auto;html=1;fontSize=12;startSize=8;endSize=8;" parent="1" source="JjKQ8CQkzTSP6PZhoDlF-22" target="JjKQ8CQkzTSP6PZhoDlF-5" edge="1">
          <mxGeometry relative="1" as="geometry" />
        </mxCell>
        <mxCell id="JjKQ8CQkzTSP6PZhoDlF-22" value="&lt;font style=&quot;font-size: 22px;&quot;&gt;Start&lt;/font&gt;" style="whiteSpace=wrap;html=1;" parent="1" vertex="1">
          <mxGeometry x="-700" y="-136" width="120" height="60" as="geometry" />
        </mxCell>
        <mxCell id="QBpZ6xTL5SgzaReXafCs-22" style="edgeStyle=none;curved=1;rounded=0;orthogonalLoop=1;jettySize=auto;html=1;entryX=0.5;entryY=0;entryDx=0;entryDy=0;fontSize=12;startSize=8;endSize=8;" parent="1" source="QBpZ6xTL5SgzaReXafCs-1" target="JjKQ8CQkzTSP6PZhoDlF-7" edge="1">
          <mxGeometry relative="1" as="geometry" />
        </mxCell>
        <mxCell id="QBpZ6xTL5SgzaReXafCs-1" value="&lt;font style=&quot;font-size: 20px;&quot;&gt;Configure PA4 as input&lt;/font&gt;" style="whiteSpace=wrap;html=1;" parent="1" vertex="1">
          <mxGeometry x="-700" y="-56" width="120" height="60" as="geometry" />
        </mxCell>
        <mxCell id="QBpZ6xTL5SgzaReXafCs-20" style="edgeStyle=none;curved=1;rounded=0;orthogonalLoop=1;jettySize=auto;html=1;entryX=0.5;entryY=0;entryDx=0;entryDy=0;fontSize=12;startSize=8;endSize=8;" parent="1" source="QBpZ6xTL5SgzaReXafCs-2" target="JjKQ8CQkzTSP6PZhoDlF-1" edge="1">
          <mxGeometry relative="1" as="geometry" />
        </mxCell>
        <mxCell id="QBpZ6xTL5SgzaReXafCs-2" value="&lt;font style=&quot;font-size: 18px;&quot;&gt;Set address of GPIOA_IDR&lt;/font&gt;" style="whiteSpace=wrap;html=1;" parent="1" vertex="1">
          <mxGeometry x="-480" y="24" width="120" height="60" as="geometry" />
        </mxCell>
        <mxCell id="QBpZ6xTL5SgzaReXafCs-5" style="edgeStyle=none;curved=1;rounded=0;orthogonalLoop=1;jettySize=auto;html=1;exitX=0.5;exitY=1;exitDx=0;exitDy=0;fontSize=12;startSize=8;endSize=8;entryX=0.5;entryY=0;entryDx=0;entryDy=0;" parent="1" source="QBpZ6xTL5SgzaReXafCs-4" target="JjKQ8CQkzTSP6PZhoDlF-8" edge="1">
          <mxGeometry relative="1" as="geometry">
            <mxPoint x="-420" y="524" as="targetPoint" />
          </mxGeometry>
        </mxCell>
        <mxCell id="QBpZ6xTL5SgzaReXafCs-15" value="YES" style="edgeLabel;html=1;align=center;verticalAlign=middle;resizable=0;points=[];fontSize=12;" parent="QBpZ6xTL5SgzaReXafCs-5" vertex="1" connectable="0">
          <mxGeometry x="0.0862" y="4" relative="1" as="geometry">
            <mxPoint x="-4" y="-1" as="offset" />
          </mxGeometry>
        </mxCell>
        <mxCell id="QBpZ6xTL5SgzaReXafCs-4" value="&lt;font style=&quot;font-size: 22px;&quot;&gt;Is PA4 high?&lt;/font&gt;" style="rhombus;whiteSpace=wrap;html=1;" parent="1" vertex="1">
          <mxGeometry x="-498" y="322" width="156" height="152" as="geometry" />
        </mxCell>
        <mxCell id="Hcrr5EgMV3pNzxd26oQe-4" style="edgeStyle=orthogonalEdgeStyle;rounded=0;orthogonalLoop=1;jettySize=auto;html=1;entryX=0;entryY=0.5;entryDx=0;entryDy=0;exitX=0;exitY=0.5;exitDx=0;exitDy=0;" edge="1" parent="1" source="QBpZ6xTL5SgzaReXafCs-40" target="QBpZ6xTL5SgzaReXafCs-4">
          <mxGeometry relative="1" as="geometry">
            <mxPoint x="-521" y="363" as="targetPoint" />
            <mxPoint x="-862" y="1036" as="sourcePoint" />
            <Array as="points">
              <mxPoint x="-906" y="1071" />
              <mxPoint x="-906" y="398" />
            </Array>
          </mxGeometry>
        </mxCell>
        <mxCell id="Hcrr5EgMV3pNzxd26oQe-5" value="NO" style="edgeLabel;html=1;align=center;verticalAlign=middle;resizable=0;points=[];" vertex="1" connectable="0" parent="Hcrr5EgMV3pNzxd26oQe-4">
          <mxGeometry x="-0.8531" y="1" relative="1" as="geometry">
            <mxPoint as="offset" />
          </mxGeometry>
        </mxCell>
        <mxCell id="Hcrr5EgMV3pNzxd26oQe-24" value="" style="edgeStyle=orthogonalEdgeStyle;rounded=0;orthogonalLoop=1;jettySize=auto;html=1;" edge="1" parent="1" source="QBpZ6xTL5SgzaReXafCs-40" target="Hcrr5EgMV3pNzxd26oQe-23">
          <mxGeometry relative="1" as="geometry" />
        </mxCell>
        <mxCell id="Hcrr5EgMV3pNzxd26oQe-25" value="YES" style="edgeLabel;html=1;align=center;verticalAlign=middle;resizable=0;points=[];" vertex="1" connectable="0" parent="Hcrr5EgMV3pNzxd26oQe-24">
          <mxGeometry x="-0.0171" y="3" relative="1" as="geometry">
            <mxPoint x="1" y="3" as="offset" />
          </mxGeometry>
        </mxCell>
        <mxCell id="QBpZ6xTL5SgzaReXafCs-40" value="&lt;font style=&quot;font-size: 20px;&quot;&gt;Is bit counter 0?&lt;/font&gt;" style="rhombus;whiteSpace=wrap;html=1;aspect=fixed;" parent="1" vertex="1">
          <mxGeometry x="-699" y="992" width="158" height="158" as="geometry" />
        </mxCell>
        <mxCell id="Hcrr5EgMV3pNzxd26oQe-1" style="edgeStyle=orthogonalEdgeStyle;rounded=0;orthogonalLoop=1;jettySize=auto;html=1;endArrow=classic;startFill=0;endFill=1;entryX=0;entryY=0.5;entryDx=0;entryDy=0;exitX=0;exitY=0.5;exitDx=0;exitDy=0;" edge="1" parent="1" source="QBpZ6xTL5SgzaReXafCs-49">
          <mxGeometry relative="1" as="geometry">
            <mxPoint x="-480" y="234" as="targetPoint" />
            <mxPoint x="-1000" y="1154" as="sourcePoint" />
            <Array as="points">
              <mxPoint x="-1010" y="1215" />
              <mxPoint x="-1010" y="234" />
            </Array>
          </mxGeometry>
        </mxCell>
        <mxCell id="Hcrr5EgMV3pNzxd26oQe-26" style="edgeStyle=orthogonalEdgeStyle;rounded=0;orthogonalLoop=1;jettySize=auto;html=1;entryX=0.5;entryY=1;entryDx=0;entryDy=0;endArrow=none;startFill=1;startArrow=classic;" edge="1" parent="1" source="QBpZ6xTL5SgzaReXafCs-49" target="Hcrr5EgMV3pNzxd26oQe-23">
          <mxGeometry relative="1" as="geometry" />
        </mxCell>
        <mxCell id="Hcrr5EgMV3pNzxd26oQe-27" value="YES" style="edgeLabel;html=1;align=center;verticalAlign=middle;resizable=0;points=[];" vertex="1" connectable="0" parent="Hcrr5EgMV3pNzxd26oQe-26">
          <mxGeometry x="-0.3585" y="-1" relative="1" as="geometry">
            <mxPoint as="offset" />
          </mxGeometry>
        </mxCell>
        <mxCell id="QBpZ6xTL5SgzaReXafCs-49" value="&lt;font style=&quot;font-size: 22px;&quot;&gt;Wait for PA4 Low&lt;/font&gt;" style="whiteSpace=wrap;html=1;" parent="1" vertex="1">
          <mxGeometry x="-680" y="1185" width="120" height="60" as="geometry" />
        </mxCell>
        <mxCell id="QBpZ6xTL5SgzaReXafCs-59" style="edgeStyle=none;curved=1;rounded=0;orthogonalLoop=1;jettySize=auto;html=1;exitX=0.5;exitY=1;exitDx=0;exitDy=0;entryX=0.5;entryY=0;entryDx=0;entryDy=0;fontSize=12;startSize=8;endSize=8;" parent="1" source="QBpZ6xTL5SgzaReXafCs-57" target="QBpZ6xTL5SgzaReXafCs-4" edge="1">
          <mxGeometry relative="1" as="geometry" />
        </mxCell>
        <mxCell id="QBpZ6xTL5SgzaReXafCs-57" value="&lt;font style=&quot;font-size: 22px;&quot;&gt;Set Bit counter to 8&lt;/font&gt;" style="rounded=0;whiteSpace=wrap;html=1;" parent="1" vertex="1">
          <mxGeometry x="-480" y="204" width="120" height="60" as="geometry" />
        </mxCell>
        <mxCell id="QBpZ6xTL5SgzaReXafCs-68" style="edgeStyle=none;curved=1;rounded=0;orthogonalLoop=1;jettySize=auto;html=1;exitX=0.5;exitY=1;exitDx=0;exitDy=0;entryX=0.5;entryY=0;entryDx=0;entryDy=0;fontSize=12;startSize=8;endSize=8;" parent="1" source="QBpZ6xTL5SgzaReXafCs-60" target="QBpZ6xTL5SgzaReXafCs-40" edge="1">
          <mxGeometry relative="1" as="geometry" />
        </mxCell>
        <mxCell id="QBpZ6xTL5SgzaReXafCs-60" value="&lt;font style=&quot;font-size: 22px;&quot;&gt;Decrement Bit counter&lt;/font&gt;" style="whiteSpace=wrap;html=1;" parent="1" vertex="1">
          <mxGeometry x="-680" y="897" width="120" height="60" as="geometry" />
        </mxCell>
        <mxCell id="Hcrr5EgMV3pNzxd26oQe-17" value="&lt;font style=&quot;font-size: 120px;&quot;&gt;STM32&lt;/font&gt;" style="text;html=1;align=center;verticalAlign=middle;resizable=0;points=[];autosize=1;strokeColor=none;fillColor=none;" vertex="1" parent="1">
          <mxGeometry x="-790.5" y="-322" width="405" height="156" as="geometry" />
        </mxCell>
        <mxCell id="Hcrr5EgMV3pNzxd26oQe-21" style="edgeStyle=orthogonalEdgeStyle;rounded=0;orthogonalLoop=1;jettySize=auto;html=1;entryX=1;entryY=0.5;entryDx=0;entryDy=0;endArrow=none;startFill=1;startArrow=classic;" edge="1" parent="1" source="QBpZ6xTL5SgzaReXafCs-4" target="QBpZ6xTL5SgzaReXafCs-4">
          <mxGeometry relative="1" as="geometry">
            <Array as="points">
              <mxPoint x="-420" y="321" />
              <mxPoint x="-322" y="321" />
              <mxPoint x="-322" y="398" />
            </Array>
          </mxGeometry>
        </mxCell>
        <mxCell id="Hcrr5EgMV3pNzxd26oQe-22" value="NO" style="edgeLabel;html=1;align=center;verticalAlign=middle;resizable=0;points=[];" vertex="1" connectable="0" parent="Hcrr5EgMV3pNzxd26oQe-21">
          <mxGeometry x="0.4172" relative="1" as="geometry">
            <mxPoint as="offset" />
          </mxGeometry>
        </mxCell>
        <mxCell id="Hcrr5EgMV3pNzxd26oQe-28" style="edgeStyle=orthogonalEdgeStyle;rounded=0;orthogonalLoop=1;jettySize=auto;html=1;entryX=1;entryY=0.5;entryDx=0;entryDy=0;" edge="1" parent="1" source="Hcrr5EgMV3pNzxd26oQe-23" target="QBpZ6xTL5SgzaReXafCs-57">
          <mxGeometry relative="1" as="geometry">
            <Array as="points">
              <mxPoint x="-158" y="1071" />
              <mxPoint x="-158" y="234" />
            </Array>
          </mxGeometry>
        </mxCell>
        <mxCell id="Hcrr5EgMV3pNzxd26oQe-29" value="NO&lt;div&gt;&lt;br&gt;&lt;/div&gt;" style="edgeLabel;html=1;align=center;verticalAlign=middle;resizable=0;points=[];" vertex="1" connectable="0" parent="Hcrr5EgMV3pNzxd26oQe-28">
          <mxGeometry x="-0.895" y="-5" relative="1" as="geometry">
            <mxPoint x="1" y="3" as="offset" />
          </mxGeometry>
        </mxCell>
        <mxCell id="Hcrr5EgMV3pNzxd26oQe-23" value="&lt;font style=&quot;font-size: 22px;&quot;&gt;Is PA4 high?&lt;/font&gt;" style="rhombus;whiteSpace=wrap;html=1;aspect=fixed;" vertex="1" parent="1">
          <mxGeometry x="-463" y="987" width="168" height="168" as="geometry" />
        </mxCell>
      </root>
    </mxGraphModel>
  </diagram>
</mxfile>
